<?xml version="1.0" encoding="utf-8"?>
<svg id="Layer_1" style="enable-background:new 0 0 250 250;" x="0px" y="0px" viewBox="33 24 190 204" xmlns="http://www.w3.org/2000/svg">
  <style type="text/css">
	.st0{fill:#DD0031;}
	.st1{fill:#C3002F;}
	.st2{fill:#FFFFFF;}
</style>
  <g transform="matrix(1, 0, 0, 1, 3.692474, -4.102749)">
    <polygon class="st0" points="125,30 125,30 125,30 31.9,63.2 46.1,186.3 125,230 125,230 125,230 203.9,186.3 218.1,63.2 &#9;"/>
    <polygon class="st1" points="125,30 125,52.2 125,52.1 125,153.4 125,153.4 125,230 125,230 203.9,186.3 218.1,63.2 125,30 &#9;"/>
  </g>
  <path d="M 177.591 152.914 L 177.591 135.371 L 135.412 135.371 L 135.412 113.795 C 147.423 112.632 156.813 102.515 156.813 90.199 C 156.813 77.104 146.196 66.488 133.1 66.488 C 120.005 66.488 109.388 77.104 109.388 90.199 C 109.388 102.515 118.779 112.632 130.788 113.795 L 130.788 135.371 L 88.609 135.371 L 88.609 152.914 L 78.651 152.914 L 78.651 177.455 L 103.191 177.455 L 103.191 152.914 L 93.233 152.914 L 93.233 139.995 L 130.788 139.995 L 130.788 152.914 L 120.83 152.914 L 120.83 177.455 L 145.371 177.455 L 145.371 152.914 L 135.412 152.914 L 135.412 139.995 L 172.968 139.995 L 172.968 152.914 L 163.01 152.914 L 163.01 177.455 L 187.55 177.455 L 187.55 152.914 L 177.591 152.914 Z" opacity="0.3"/>
  <path d="M 173.664 148.768 L 173.664 130.795 L 130.449 130.795 L 130.449 108.689 C 142.755 107.498 152.375 97.133 152.375 84.516 C 152.375 71.099 141.498 60.222 128.081 60.222 C 114.664 60.222 103.788 71.099 103.788 84.516 C 103.788 97.133 113.408 107.498 125.712 108.689 L 125.712 130.795 L 82.498 130.795 L 82.498 148.768 L 72.296 148.768 L 72.296 173.912 L 97.438 173.912 L 97.438 148.768 L 87.235 148.768 L 87.235 135.532 L 125.712 135.532 L 125.712 148.768 L 115.51 148.768 L 115.51 173.912 L 140.653 173.912 L 140.653 148.768 L 130.449 148.768 L 130.449 135.532 L 168.927 135.532 L 168.927 148.768 L 158.724 148.768 L 158.724 173.912 L 183.866 173.912 L 183.866 148.768 L 173.664 148.768 Z" fill="#FFFFFF"/>
</svg>